<svg width="168" height="56" fill="none" xmlns="http://www.w3.org/2000/svg"><g clip-path="url(#a)"><path d="M15.129 35.106c0-1.779-.032-3.268-.129-4.6h3.405l.161 2.286h.095c.77-1.207 2.183-2.636 4.817-2.636 2.057 0 3.661 1.144 4.336 2.856h.066c.546-.856 1.187-1.492 1.925-1.934.868-.604 1.866-.922 3.148-.922 2.603 0 5.234 1.744 5.234 6.697v9.103h-3.853v-8.535c0-2.568-.9-4.094-2.795-4.094-1.348 0-2.345.955-2.761 2.066-.116.423-.18.859-.193 1.298v9.267H24.73v-8.95c0-2.154-.866-3.68-2.698-3.68-1.475 0-2.47 1.145-2.827 2.221-.16.382-.225.828-.225 1.269v9.14h-3.85V35.106Zm38.075 7.14c0 1.395.064 2.758.223 3.712h-3.565l-.256-1.712h-.097c-.964 1.206-2.603 2.06-4.622 2.06-3.149 0-4.915-2.251-4.915-4.6 0-3.906 3.498-5.87 9.282-5.839v-.253c0-1.017-.419-2.698-3.182-2.698-1.543 0-3.147.478-4.207 1.142l-.77-2.539c1.156-.7 3.18-1.365 5.651-1.365 5.012 0 6.46 3.145 6.46 6.504l-.002 5.589Zm-3.856-3.837c-2.795-.065-5.46.538-5.46 2.886 0 1.522.999 2.222 2.25 2.222 1.572 0 2.73-1.019 3.083-2.128.087-.277.13-.566.129-.856l-.002-2.124Zm6.584-3.303c0-1.779-.033-3.268-.126-4.6h3.465l.192 2.32h.097c.673-1.208 2.377-2.67 4.978-2.67 2.731 0 5.555 1.744 5.555 6.634v9.166h-3.95v-8.723c0-2.22-.836-3.907-2.986-3.907-1.572 0-2.667 1.112-3.084 2.287-.128.347-.16.825-.16 1.266v9.076h-3.982l.001-10.85Zm31.29-10.807V41.61a79.2 79.2 0 0 0 .129 4.347H83.82l-.162-2.441h-.066c-.929 1.712-2.826 2.79-5.105 2.79-3.726 0-6.679-3.14-6.679-7.897-.034-5.173 3.24-8.253 7.001-8.253 2.15 0 3.692.889 4.399 2.036h.067V24.3h3.948l-.001-.001Zm-3.948 12.648c0-.316-.032-.697-.097-1.016-.354-1.52-1.604-2.76-3.404-2.76-2.537 0-3.953 2.223-3.953 5.109 0 2.821 1.415 4.885 3.922 4.885 1.602 0 3.017-1.08 3.401-2.762.098-.347.132-.73.132-1.141l-.001-2.316Zm6.742 9.01v-15.45h3.985v15.452h-3.985Zm6.777-10.468c0-2.094-.03-3.587-.126-4.981h3.436l.126 2.948h.13c.771-2.189 2.6-2.948 4.274-2.948.385 0 .608-.065.928 0v3.428a5.493 5.493 0 0 0-1.154-.127c-1.898 0-3.183 1.206-3.535 2.948-.077.399-.12.803-.127 1.21v7.992h-3.952V35.49Zm10.602 10.469V30.506h3.979v15.452h-3.979Z" fill="#fff"/><path d="M136.165 14.164c-1.972-2.222-4.068-1.216-5.734-.398-.701.342-5.759 3.174-5.759 3.174-2.771 1.129-4.929-.103-5.776-1.14a2.493 2.493 0 0 1-.219-.312l-.197-.338a15.175 15.175 0 0 0-1.109-1.64 9.465 9.465 0 0 0-.798-.9c-1.896-1.891-4.927-3.215-9.992-.81a3407.552 3407.552 0 0 1-10.21 5.782c-2.936 1.193-5.18-.26-5.91-1.327a.772.772 0 0 1-.086-.128l-.096-.161-.495-.8c-.223-.35-.462-.69-.717-1.019a10.28 10.28 0 0 0-.8-.898c-1.883-1.88-4.897-3.201-9.918-.842-3.036 1.712-10.097 5.7-10.097 5.7l-.003.003-5.168 2.917 2.674 3.244c1.125 1.06 3.24 2.797 6.512 1.332 0 0 9.03-5.166 9.066-5.182 7.72-4.186 11.53-.186 13.215 2.48.058.083.106.173.159.254l.002.004c.022.032.035.062.053.093l.19.308c.821 1.23 2.115 2.023 3.659 1.986.85-.017 1.428-.29 2.269-.753l8.737-5.006.019-.009c7.817-4.236 11.691.024 13.346 2.69.129.23.274.45.425.656.819 1.097 1.949 1.816 3.384 1.78.949-.017 2.011-.58 2.17-.683l10.474-5.973c.003.003-1.067-1.595-3.27-4.084Z" fill="#FDD213"/><path d="M136.165 14.164c-1.972-2.222-4.068-1.216-5.734-.398-.701.342-5.759 3.174-5.759 3.174-2.771 1.129-4.929-.103-5.776-1.14a2.493 2.493 0 0 1-.219-.312l-.197-.338a15.175 15.175 0 0 0-1.109-1.64 9.465 9.465 0 0 0-.798-.9c-1.896-1.891-4.927-3.215-9.992-.81a3407.552 3407.552 0 0 1-10.21 5.782c-2.936 1.193-5.18-.26-5.91-1.327a.772.772 0 0 1-.086-.128l-.096-.161-.495-.8c-.223-.35-.462-.69-.717-1.019a10.28 10.28 0 0 0-.8-.898c-1.883-1.88-4.897-3.201-9.918-.842-3.036 1.712-10.097 5.7-10.097 5.7l-.003.003-5.168 2.917 2.674 3.244c1.125 1.06 3.24 2.797 6.512 1.332 0 0 9.03-5.166 9.066-5.182 7.72-4.186 11.53-.186 13.215 2.48.058.083.106.173.159.254l.002.004c.022.032.035.062.053.093l.19.308c.821 1.23 2.115 2.023 3.659 1.986.85-.017 1.428-.29 2.269-.753l8.737-5.006.019-.009c7.817-4.236 11.691.024 13.346 2.69.129.23.274.45.425.656.819 1.097 1.949 1.816 3.384 1.78.949-.017 2.011-.58 2.17-.683l10.474-5.973c.003.003-1.067-1.595-3.27-4.084Z" fill="#ECB33E"/><path d="M149.874 29.256h-26.05a3.126 3.126 0 0 0-3.126 3.126v10.42c0 1.726 1.4 3.126 3.126 3.126h26.05c1.726 0 3.126-1.4 3.126-3.126v-10.42c0-1.727-1.4-3.126-3.126-3.126Z" fill="#0C79F8"/><path d="m136.534 33.077-3.114 8.778h-2.675l-3.114-8.778h2.276l2.176 6.627 2.188-6.627h2.263Zm6.358 7.227h-3.276l-.525 1.55h-2.239l3.176-8.777h2.476l3.176 8.778h-2.263l-.525-1.55Zm-.55-1.65-1.088-3.214-1.076 3.214h2.164Z" fill="#fff"/></g><defs><clipPath id="a"><path fill="#fff" transform="translate(9 6)" d="M0 0h150v45H0z"/></clipPath></defs></svg>